<svg xmlns="http://www.w3.org/2000/svg" height="48" viewBox="0 -960 960 960" width="48"><path d="M122.002-39.002v-666.534q0-28.254 21.219-49.473 21.22-21.22 49.473-21.22h437.843q28.34 0 49.824 21.22 21.484 21.219 21.484 49.473v666.534L411.616-161.617 122.002-39.002Zm58.384-88.46 231.23-99.381 231.23 99.381v-578.074q0-4.616-3.847-8.463-3.846-3.846-8.462-3.846H192.694q-4.615 0-8.462 3.846-3.846 3.847-3.846 8.463v578.074Zm599.228-28.618v-686.225q0-4.616-3.846-8.462-3.847-3.847-8.462-3.847H248.925v-58.383h518.381q28.253 0 49.473 21.219 21.219 21.219 21.219 49.473v686.225h-58.384ZM180.386-717.845h462.46-462.46Z"/></svg>