<svg xmlns="http://www.w3.org/2000/svg" height="48" viewBox="0 -960 960 960" width="48"><path d="M624.647-533.231q21.775 0 37.295-15.551 15.519-15.551 15.519-37.326 0-21.776-15.551-37.295-15.551-15.519-37.327-15.519-21.776 0-37.295 15.55-15.519 15.551-15.519 37.327 0 21.776 15.551 37.295 15.551 15.519 37.327 15.519Zm-289.23 0q21.776 0 37.295-15.551 15.519-15.551 15.519-37.326 0-21.776-15.551-37.295-15.551-15.519-37.327-15.519-21.775 0-37.295 15.55-15.519 15.551-15.519 37.327 0 21.776 15.551 37.295 15.551 15.519 37.327 15.519ZM480-262.924q65.982 0 120.337-35.5 54.354-35.5 78.97-95.499H280.693q25.231 59.999 79.278 95.499 54.047 35.5 120.029 35.5Zm.067 178.922q-81.476 0-154.098-31.15-72.621-31.15-126.342-84.55-53.72-53.4-84.673-126.078-30.953-72.677-30.953-154.153 0-81.476 31.151-154.098 31.15-72.621 84.55-126.342 53.4-53.72 126.078-84.673 72.677-30.953 154.153-30.953 81.476 0 154.098 31.151 72.621 31.15 126.342 84.55 53.72 53.4 84.673 126.078 30.953 72.677 30.953 154.153 0 81.476-31.151 154.098-31.15 72.621-84.55 126.342-53.4 53.72-126.078 84.673-72.677 30.953-154.153 30.953ZM480-480Zm.143 337.615q140.924 0 239.198-98.417 98.274-98.418 98.274-239.341 0-140.924-98.417-239.198t-239.341-98.274q-140.924 0-239.198 98.417t-98.274 239.341q0 140.924 98.417 239.198 98.418 98.274 239.341 98.274Z"/></svg>