<svg xmlns="http://www.w3.org/2000/svg" height="48" viewBox="0 -960 960 960" width="48"><path d="M167.155-162.078v-58.383h128.538l-21.462-20.232q-57.846-52.462-85.538-109.577-27.692-57.115-27.692-127.345 0-104.846 61.692-189.692t162.768-116.384v60.998q-75.615 29.924-120.846 96.808-45.231 66.885-45.231 148.27 0 57.307 20.539 102.884 20.538 45.577 57.923 79.5l36 29.694v-121.616h58.384v225.075H167.155Zm407.999-13.615v-61.614q76.616-28.924 121.539-96.308 44.923-67.385 44.923-149.77 0-45.154-21.539-93.154-21.538-48-56.307-84.769l-35.386-33.155v121.616h-58.383v-225.075h225.075v58.383H665.922L687-717.691q57.384 53.538 85.192 114.884 27.807 61.346 27.807 119.422 0 105.846-61.884 190.5-61.884 84.653-162.961 117.192Z"/></svg>