<svg xmlns="http://www.w3.org/2000/svg" height="48" viewBox="0 -960 960 960" width="48"><path d="m510.143-296.616 86.774-61.994 86.159 61.994-32.307-105.538 86.076-72.23H631.077L597-577.307l-34.523 102.923H456.155l86.543 72.347-32.555 105.421ZM154.694-164.001q-28.254 0-49.473-21.165-21.22-21.165-21.22-49.528v-490.612q0-28.363 21.22-49.528 21.219-21.165 49.473-21.165h239.459l78.385 78.385h332.768q28.363 0 49.528 21.165t21.165 49.528v412.227q0 28.363-21.165 49.528t-49.528 21.165H154.694Zm0-58.384h650.612q5.385 0 8.847-3.462 3.462-3.462 3.462-8.847v-412.227q0-5.385-3.462-8.847-3.462-3.462-8.847-3.462H449.077l-78.385-78.385H154.694q-5.385 0-8.847 3.462-3.462 3.462-3.462 8.847v490.612q0 5.385 3.462 8.847 3.462 3.462 8.847 3.462Zm-12.309 0v-515.23 515.23Z"/></svg>