<svg xmlns="http://www.w3.org/2000/svg" height="48" viewBox="0 -960 960 960" width="48" fill="#cccccc"><path d="m698.154-80.54-5.077-47.769q-24.308-5.231-41.615-15.539-17.308-10.307-29.693-24.615l-41.922 18.307-34.307-52.153 38.076-29.23q-6.538-18.454-6.538-39.643 0-21.188 6.538-41.281l-38.076-29.23 34.307-52.768 41.922 17.923q12.416-12.535 29.708-22.729 17.292-10.194 41.6-16.425l5.033-48.769h58.427l6.077 48.769q23.308 6.231 40.616 16.346 17.307 10.115 30.692 22.808l41.923-17.923 34.307 52.768-38.077 29.23q5.539 19.855 5.539 41.043 0 21.189-5.539 39.881l38.077 29.23-34.307 52.153-41.923-18.307q-13.385 14.308-30.692 24.615-17.308 10.308-40.616 15.539l-6.033 47.768h-58.427Zm28.884-93.153q42.682 0 70.398-27.717 27.717-27.717 27.717-70.398 0-42.682-27.717-70.399-27.716-27.717-70.398-27.717-42.682 0-70.398 27.717-27.717 27.717-27.717 70.399 0 42.681 27.717 70.398 27.716 27.717 70.398 27.717Zm-584.653-48.692v-515.23V-516-533.385v311Zm12.309 58.384q-28.254 0-49.473-21.165-21.22-21.165-21.22-49.528v-490.612q0-28.363 21.22-49.528 21.219-21.165 49.473-21.165h239.459l78.385 78.385h332.768q28.363 0 49.528 21.165t21.165 49.528v161.458q-12.746-10.297-27.68-17.687-14.935-7.389-30.704-12.78v-130.991q0-5.385-3.462-8.847-3.462-3.462-8.847-3.462H449.077l-78.385-78.385H154.694q-5.385 0-8.847 3.462-3.462 3.462-3.462 8.847v490.612q0 5.385 3.462 8.847 3.462 3.462 8.847 3.462h318.621q2.146 16.154 5.8 30.499 3.654 14.346 10.731 27.885H154.694Z" fill="#cccccc" /></svg>