<svg xmlns="http://www.w3.org/2000/svg" height="48" viewBox="0 -960 960 960" width="48" fill="#cccccc"><path d="M110.694-128.617q-29.597 0-50.145-20.548-20.547-20.548-20.547-50.144v-488.766h58.383v488.766q0 5.385 3.462 8.846 3.462 3.462 8.847 3.462h714.535v58.384H110.694Zm123.768-123.769q-29.596 0-50.144-20.548t-20.548-50.144v-482.228q0-29.596 20.548-50.145 20.548-20.548 50.144-20.548h235.461l80 80h299.383q29.596 0 50.145 20.548 20.548 20.549 20.548 50.145v402.228q0 29.596-20.548 50.144-20.549 20.548-50.145 20.548H234.462Zm0-53.383h614.844q5.385 0 8.847-3.462 3.462-3.462 3.462-8.847v-407.228q0-5.385-3.462-8.847-3.462-3.462-8.847-3.462H525.874l-79.797-80H234.462q-5.385 0-8.847 3.462-3.461 3.462-3.461 8.847v487.228q0 5.385 3.461 8.847 3.462 3.462 8.847 3.462Zm-12.308 0v-511.846 511.846Z" fill="#cccccc" /></svg>