<svg xmlns="http://www.w3.org/2000/svg" height="48" viewBox="0 -960 960 960" width="48" fill="#cccccc"><path d="M483.951-249.463q15.356 0 26.126-10.912 10.769-10.913 10.769-26.269 0-14.972-10.721-25.933-10.72-10.962-26.076-10.962t-26.318 10.913q-10.961 10.913-10.961 25.884 0 15.357 10.912 26.318 10.913 10.961 26.269 10.961ZM450.308-394h57.538q.384-26.786 7.154-47.701 6.769-20.914 39.538-49.222 29.846-25.384 42.961-49.765 13.116-24.381 13.116-54.651 0-52.922-34.694-84.176-34.693-31.253-89.837-31.253-49.853 0-86.083 24.769-36.231 24.769-52.462 65.615l51.846 20.153q9.384-25.846 29.923-42.269 20.538-16.423 53.307-16.423 34.693 0 55.308 19.039 20.616 19.038 20.616 47.423 0 21.615-12.945 40.154-12.945 18.538-35.594 38.384-32.23 28-45.961 53.808-13.731 25.808-13.731 66.115Zm29.301 309.999q-81.403 0-153.419-31.44t-125.649-85.05q-53.634-53.611-85.087-125.727-31.453-72.117-31.453-153.715 0-82.108 31.499-154.353 31.499-72.246 85.396-126.152 53.898-53.905 125.652-84.733 71.755-30.828 152.942-30.828 82.165 0 154.716 30.815 72.552 30.814 126.239 84.71 53.688 53.896 84.621 126.275 30.933 72.38 30.933 154.674 0 81.679-30.815 153.193-30.814 71.515-84.697 125.411t-126.244 85.408q-72.361 31.512-154.634 31.512Zm.391-58.384q140.205 0 238.91-99.013Q817.615-340.411 817.615-480q0-140.205-98.705-238.91-98.705-98.705-238.91-98.705-139.589 0-238.602 98.705T142.385-480q0 139.589 99.013 238.602T480-142.385ZM480-480Z" fill="#cccccc" /></svg>