<svg xmlns="http://www.w3.org/2000/svg" height="48" viewBox="0 -960 960 960" width="48" fill="#cccccc"><path d="M479.797-80.001q-73.566 0-138.387-28.062-64.822-28.061-113.054-76.293-48.232-48.232-76.293-113.192-28.062-64.96-28.062-138.452h58.384q0 123.692 87.14 210.654 87.141 86.961 210.654 86.961 123.513 0 210.475-87.14 86.961-87.141 86.961-210.654 0-123.513-85.165-210.475-85.165-86.961-208.604-86.961h-20.385l70.846 70.461-40.383 41.615L351.54-764.307l143.153-142.768 40.384 40L460-791.999h20q73.492 0 138.452 28.062 64.96 28.061 113.192 76.293 48.232 48.232 76.293 113.257 28.062 65.024 28.062 138.59T807.937-297.41q-28.061 64.822-76.293 113.054-48.232 48.232-113.257 76.293-65.024 28.062-138.59 28.062Z" fill="#cccccc" /></svg>