<svg xmlns="http://www.w3.org/2000/svg" height="48" viewBox="0 -960 960 960" width="48" fill="#cccccc"><path d="M122.231-40V-209.54q-34.384-10.584-58.307-39.407Q40-277.769 40-315.932v-399.606h82.23v-176.769q0-13.07 8.012-20.881t21.378-7.811q13.365 0 21.18 7.811 7.814 7.811 7.814 20.881v176.769h83.231v399.606q0 38.213-24.116 66.764-24.115 28.552-59.115 39.829v169.338h-58.384Zm329.077 0V-209.54q-34-11.077-58.615-39.629-24.615-28.551-24.615-66.764v-399.606h83.23v-176.769q0-13.07 8.012-20.881t21.378-7.811q13.365 0 21.18 7.811 7.814 7.811 7.814 20.881v176.769h82.23v399.606q0 38.213-23.615 66.764-23.615 28.552-58.615 39.829v169.338h-58.384Zm328.077 0V-209.54q-34-11.077-58.615-39.629-24.616-28.551-24.616-66.764v-399.606h83.231v-176.769q0-13.07 8.012-20.881t21.377-7.811q13.366 0 21.18 7.811 7.815 7.811 7.815 20.881v176.769h83.23v399.606q0 38.213-24.423 66.764-24.423 28.552-58.807 39.829v169.338h-58.384Zm-681-617.154v187.847h107.077v-187.847H98.384Zm328.076 0v187.847h107.078v-187.847H426.461Zm328.077 0v187.847h107.078v-187.847H754.538ZM151.993-264.461q22.173 0 37.821-15.698 15.648-15.699 15.648-37.841v-92.924H98.384V-318q0 22.142 15.719 37.841 15.718 15.698 37.89 15.698Zm328.077 0q22.172 0 37.821-15.698 15.648-15.699 15.648-37.841v-92.924H426.461V-318q0 22.142 15.718 37.841 15.719 15.698 37.891 15.698Zm328.077 0q22.172 0 37.821-15.698 15.648-15.699 15.648-37.841v-92.924H754.538V-318q0 22.142 15.718 37.841 15.719 15.698 37.891 15.698ZM151.923-440.615Zm328.077 0Zm329.077 0ZM98.384-469.307h107.078H98.384Zm328.077 0h107.078-107.078Zm328.077 0h107.078-107.078Zm-602.615 58.383H98.384h107.078-53.539Zm328.077 0h-53.539 107.078H480Zm328.077 0h-53.539 107.078-53.539Z" fill="#cccccc" /></svg>