<svg xmlns="http://www.w3.org/2000/svg" height="48" viewBox="0 -960 960 960" width="48"><path d="M553.539-118.617v-60.384q102.999-29.154 166.96-113.077Q784.461-376 784.461-482q0-105-64.154-188.422-64.153-83.423-166.768-112.577v-60.384Q680.23-813.46 761.537-712.46 842.844-611.461 842.844-482q0 131.461-80.807 232.96-80.807 101.5-208.498 130.423ZM117.156-370.001v-219.998h155.46l185.537-186.536v593.07L272.616-370.001h-155.46Zm421.768 47.846V-638.23q48.537 19.154 76.883 62.346 28.346 43.192 28.346 95.884 0 53.076-28.346 95.884-28.346 42.807-76.883 61.961Zm-139.155-308.69-101.691 99.23H175.539v103.23h122.539l101.691 99.846v-302.306ZM307.231-480Z"/></svg>