<svg xmlns="http://www.w3.org/2000/svg" height="48" viewBox="0 -960 960 960" width="48"><path d="M802.152-55.463 681.614-175q-28.819 19.203-61.255 33.678-32.436 14.475-68.512 22.706v-60.384q23.153-5.846 45.192-14.692 22.038-8.846 42.345-23.923L456.461-401.154v217.689L270.925-370.001H115.464v-219.998h151.153L52.771-804.844l41.615-42L843.767-97.693l-41.615 42.23Zm-17.846-231.23-43.23-43.229q21.462-33.77 31.577-71.808 10.116-38.039 10.116-80.428 0-106.644-64.038-191.396-64.038-84.753-166.884-109.445v-60.384Q678.923-813.46 760.038-712.46 841.152-611.461 841.152-482q0 53.385-14.846 102.615-14.846 49.231-42 92.692Zm-151.461-151.46-80.998-80.999v-114.001q42.461 23 66.537 63.961Q642.461-528.23 642.461-480q0 11.693-2.154 22-2.154 10.308-7.462 19.847ZM456.461-614.537l-80.306-81.692 80.306-80.306v161.998Zm-58.383 289.459v-133.46L325-531.615H173.848v103.23H295.77l102.308 103.307Zm-36.539-169.998Z"/></svg>