<svg xmlns="http://www.w3.org/2000/svg" height="48" viewBox="0 -960 960 960" width="48" fill="#6E6E6E"><path d="M451.308-410.001h58.384v-128.307h128.307v-58.384H509.692v-128.307h-58.384v128.307H323.001v58.384h128.307v128.307ZM84.001-97.464v-713.842q0-28.254 21.22-49.473 21.219-21.22 49.473-21.22h650.612q28.254 0 49.473 21.22 21.22 21.219 21.22 49.473v488.612q0 28.254-21.22 49.473-21.219 21.22-49.473 21.22H238.539L84.002-97.464Zm129.692-212.921h591.613q4.616 0 8.463-3.846 3.846-3.847 3.846-8.463v-488.612q0-4.616-3.846-8.463-3.847-3.846-8.463-3.846H154.694q-4.616 0-8.463 3.846-3.846 3.847-3.846 8.463v576.69l71.308-75.769Zm-71.308 0v-513.23 513.23Z" fill="#6E6E6E" /></svg>