<svg xmlns="http://www.w3.org/2000/svg" height="48" viewBox="0 -960 960 960" width="48" fill="#6E6E6E"><path d="M687.923-269.693q26.188 0 44.401-18.889 18.214-18.889 18.214-44.613t-18.529-44.341q-18.53-18.618-44.548-18.618t-44.701 18.285q-18.683 18.286-18.683 44.407 0 26.122 18.989 44.946 18.99 18.823 44.857 18.823Zm-.659 123.462q33.659 0 60.467-13.308 26.807-13.307 46.038-39.923-26.231-13-52.618-20.5t-53.805-7.5q-27.418 0-54.344 7.5-26.925 7.5-51.156 20.5 18.231 26.616 44.995 39.923 26.763 13.308 60.423 13.308ZM477-84.771q-133.769-33.538-222.884-155.976-89.115-122.437-89.115-279.645V-757.35L480-876.075l315.999 118.307v263.076q-12.539-6.692-29.385-12.346-16.845-5.654-28.999-8.269v-203.231L480-813.23l-256.615 94.85v197.497q0 77.883 23.231 139.421 23.23 61.539 60.038 108.539 36.808 47 80.385 77.192 43.577 30.192 83.654 41.423l1.154-.385q3.461 14.385 15.115 31.884 11.653 17.5 23.961 26.808-8.282 4.615-17.154 6.615T477-84.771Zm212.357.77q-76.53 0-130.712-54.364-54.182-54.363-54.182-129.963 0-77.388 54.037-131.799 54.038-54.41 131.089-54.41 76.03 0 130.528 54.276 54.497 54.276 54.497 131.665 0 75.6-54.363 130.097-54.363 54.498-130.894 54.498ZM480-483.462Z" fill="#6E6E6E" /></svg>