<svg xmlns="http://www.w3.org/2000/svg" height="48" viewBox="0 -960 960 960" width="48" fill="#6E6E6E"><path d="M480.118-317.77q68.958 0 117.766-47.002 48.807-47.002 48.807-115.346 0-69.574-48.617-118.073-48.618-48.5-118.192-48.5-68.343 0-115.227 48.925-46.885 48.925-46.885 117.884 0 68.343 47.002 115.227 47.002 46.885 115.346 46.885ZM480-440q-17 0-28.5-11.5T440-480q0-17 11.5-28.5T480-520q17 0 28.5 11.5T520-480q0 17-11.5 28.5T480-440Zm-.391 355.999q-81.403 0-153.419-31.44t-125.649-85.05q-53.634-53.611-85.087-125.727-31.453-72.117-31.453-153.715 0-82.108 31.499-154.353 31.499-72.246 85.396-126.152 53.898-53.905 125.652-84.733 71.755-30.828 152.942-30.828 82.165 0 154.716 30.815 72.552 30.814 126.239 84.71 53.688 53.896 84.621 126.275 30.933 72.38 30.933 154.674 0 81.679-30.815 153.193-30.814 71.515-84.697 125.411t-126.244 85.408q-72.361 31.512-154.634 31.512Zm.391-58.384q140.205 0 238.91-99.013Q817.615-340.411 817.615-480q0-140.205-98.705-238.91-98.705-98.705-238.91-98.705-139.589 0-238.602 98.705T142.385-480q0 139.589 99.013 238.602T480-142.385ZM480-480Z" fill="#6E6E6E" /></svg>