<svg xmlns="http://www.w3.org/2000/svg" height="48" viewBox="0 -960 960 960" width="48" fill="#6E6E6E"><path d="M264-743.922v561.537V-743.922Zm182.692 619.921H276.309q-28.254 0-49.473-21.22-21.219-21.219-21.219-49.473v-549.228h-42.231v-58.384h186.076v-32.077h249.077v32.077H784.23v58.384h-42.231v187.845q-13.538-3.846-29.137-7.192t-29.247-3.961v-176.692H264v549.228q0 4.616 3.847 8.463 3.846 3.846 8.462 3.846h140.23q3.786 11.611 12.316 29.228 8.529 17.617 17.837 29.156Zm-82.614-143.845h29.692q0-70.384 14.346-104.076l14.345-33.692v-254.847h-58.383v392.615Zm162.076-255.923q11.289-8.077 28.067-15.538 16.779-7.462 30.317-11.454v-109.7h-58.384v136.692ZM674.108-74.462q-87.903 0-148.89-61.589-60.987-61.59-60.987-148.973 0-88.118 61.537-149.623 61.536-61.506 148.581-61.506 87.875 0 149.725 61.826 61.849 61.825 61.849 149.544 0 87.815-61.956 149.068-61.956 61.253-149.859 61.253Zm65.354-115.923 26.923-26.922-74.231-74.082V-414H653.77v137.923l85.692 85.692Z" fill="#6E6E6E" /></svg>