<svg xmlns="http://www.w3.org/2000/svg" height="48" viewBox="0 -960 960 960" width="48" fill="#6E6E6E"><path d="M251.693-165.001q-86.462 0-147.577-60.447-61.114-60.446-61.114-146.629 0-76.864 50.692-136.162Q144.386-567.538 219-577.537q19.384-95.154 93.281-156 73.897-60.846 169.333-60.846 108.797 0 183.629 76.178t80.832 184.59v37.847h12.308q67.461 2.615 113.038 48.807t45.577 115.884q0 68.294-48.506 117.185-48.506 48.891-116.801 48.891H522q-28.891 0-49.791-21.22-20.901-21.219-20.901-49.473v-243.23l-83 82.385-41.615-41.23L480-591.076l154.307 153.307-41.615 41.23-83-82.385v243.23q0 4.616 3.846 8.463 3.847 3.846 8.462 3.846h228.442q44.712 0 76.442-32.003 31.731-32.003 31.731-75.559 0-43.645-31.917-75.646-31.916-32.002-75.828-32.002h-63.445v-82.599q0-88.09-60.53-151.448Q566.365-736 478.217-736q-88.149 0-148.806 63.32-60.657 63.32-60.657 151.32h-20.196q-60.624 0-103.899 42.556-43.274 42.555-43.274 106.683 0 61.648 43.604 105.192 43.605 43.544 106.704 43.544h124.229v58.384H251.693ZM480-451.308Z" fill="#6E6E6E" /></svg>