<svg xmlns="http://www.w3.org/2000/svg" height="48" viewBox="0 -960 960 960" width="48" fill="#6E6E6E"><path d="M197.694-167.001q-28.254 0-49.473-21.22-21.22-21.219-21.22-49.473v-484.612q0-28.254 21.22-49.473 21.219-21.22 49.473-21.22h564.612q28.254 0 49.473 21.22 21.22 21.219 21.22 49.473v484.612q0 28.254-21.22 49.473-21.219 21.22-49.473 21.22H197.694Zm0-58.384h564.612q4.616 0 8.463-3.846 3.846-3.847 3.846-8.463v-484.612q0-4.616-3.846-8.463-3.847-3.846-8.463-3.846H197.694q-4.616 0-8.463 3.846-3.846 3.847-3.846 8.463v484.612q0 4.616 3.846 8.463 3.847 3.846 8.463 3.846ZM306.078-366.77h97.845q18.179 0 31.705-13.476t13.526-32.755v-21.306H401.77v16.999q0 2.308-1.923 4.231t-4.231 1.923h-81.231q-2.307 0-4.231-1.923-1.923-1.923-1.923-4.231v-125.384q0-2.308 1.923-4.231 1.924-1.923 4.231-1.923h81.231q2.308 0 4.231 1.923t1.923 4.231v17.769h47.384v-23.076q0-18.179-13.526-31.705t-31.705-13.526h-97.845q-19.279 0-32.755 13.526-13.476 13.526-13.476 31.705v134.998q0 19.279 13.476 32.755 13.476 13.476 32.755 13.476Zm251.999 0h97.46q17.823 0 31.527-13.851t13.704-32.38v-21.306h-48.384v16.999q0 2.308-1.923 4.231t-4.231 1.923h-79.846q-2.308 0-4.231-1.923t-1.923-4.231v-125.384q0-2.308 1.923-4.231t4.231-1.923h79.846q2.308 0 4.231 1.923t1.923 4.231v17.769h48.384v-23.076q0-17.429-13.704-31.33t-31.527-13.901h-97.46q-18.923 0-32.577 13.901t-13.654 31.33v134.998q0 18.529 13.654 32.38 13.654 13.851 32.577 13.851ZM185.385-225.385V-734.615-225.385Z" fill="#6E6E6E" /></svg>