<svg xmlns="http://www.w3.org/2000/svg" height="48" viewBox="0 -960 960 960" width="48" fill="#6E6E6E"><path d="M251.308-165.001q-85.419 0-146.863-59.808-61.443-59.807-61.443-145.132 0-80.063 50.269-139.022Q143.54-567.922 219-577.537q18.538-93.847 92.769-155.654 74.23-61.808 168.845-61.808 105.077 0 182.769 75.038 77.692 75.039 82.692 186.346v37.847h12.308q68.538 2.846 113.576 49.846 45.039 46.999 45.039 114.845 0 68.69-48.724 117.383t-117.352 48.693H251.308Zm-.5-58.384h500.477q43.869 0 75.599-31.941 31.731-31.94 31.731-75.751 0-43.515-31.917-75.516-31.916-32.002-75.692-32.002h-63.581v-82.599q0-87.806-59.482-151.614-59.482-63.807-147.328-63.807-69.538 0-127.423 43.193-57.885 43.192-73.807 116.038 75.537 11.847 126.96 64.808Q457.768-459.615 457.768-379h-58.383q0-61.846-44.231-102.231-44.231-40.384-106.077-40.384-63.461 0-105.577 42.938-42.115 42.937-42.115 106.369 0 63.047 43.231 105.985 43.23 42.938 106.192 42.938Z" fill="#6E6E6E" /></svg>