<svg xmlns="http://www.w3.org/2000/svg" height="48" viewBox="0 -960 960 960" width="48" fill="#6E6E6E"><path d="M481.385-4.001q-93.769 0-176.807-33.462-83.039-33.461-147.346-91.769Q92.924-187.539 52.096-266.93q-40.828-79.39-49.71-171.455h58.999q6.77 75.77 41.383 142.77 34.613 67 88.769 117.423 54.156 50.423 123.425 81.384 69.269 30.962 144.808 35.423l-75.231-75.846 40.615-41.615L588.614-15.77q-26.384 6.076-54.427 8.922Q506.144-4 481.385-4Zm125.692-207.693v-84.461H368.463q-29.847 0-50.27-20.615-20.423-20.616-20.423-50.077v-238.999h-84.846v-58.384h84.846v-83.461h58.384v380.844q0 4.616 3.846 8.462 3.847 3.846 8.463 3.846h388.845v58.384H665.46v84.461h-58.383Zm0-188.228v-193.615q0-4.616-3.847-8.463-3.846-3.846-8.462-3.846H401.537v-58.384h193.231q29.846 0 50.269 20.616 20.423 20.615 20.423 50.077v193.615h-58.383ZM899.23-522.615q-6.283-76.039-41.218-142.404-34.936-66.366-89.013-117.289-54.077-50.923-123.346-81.884-69.269-30.962-144.423-35.423l75.846 75.846-41.614 41.615L372.001-945.23q26.385-6.076 54.452-8.922 28.067-2.847 54.393-2.847 92.035 0 174.94 33.462 82.905 33.461 147.571 91.644 64.666 58.182 105.239 137.867 40.573 79.685 49.018 171.411H899.23Z" fill="#6E6E6E" /></svg>