<svg xmlns="http://www.w3.org/2000/svg" height="48" viewBox="0 -960 960 960" width="48" fill="#6E6E6E"><path d="M640-484.769v-87.538h101.923v87.538H640Zm0 87.923H538.077v-87.923H640v87.923Zm0 87.538v-87.538h101.923v87.538H640ZM449.077-659.23l-78.385-78.385H154.694q-5.385 0-8.847 3.462-3.462 3.462-3.462 8.847v490.612q0 5.385 3.462 8.847 3.462 3.462 8.847 3.462h383.383v-86.923H640v86.923h165.306q5.385 0 8.847-3.462 3.462-3.462 3.462-8.847v-412.227q0-5.385-3.462-8.847-3.462-3.462-8.847-3.462H640v86.923H538.077v-86.923h-89ZM154.694-164.001q-28.254 0-49.473-21.165-21.22-21.165-21.22-49.528v-490.612q0-28.363 21.22-49.528 21.219-21.165 49.473-21.165h239.459l78.385 78.385h332.768q28.363 0 49.528 21.165t21.165 49.528v412.227q0 28.363-21.165 49.528t-49.528 21.165H154.694Zm-12.309-58.384v-515.23 515.23Z" fill="#6E6E6E" /></svg>