<svg xmlns="http://www.w3.org/2000/svg" height="48" viewBox="0 -960 960 960" width="48" fill="#6E6E6E"><path d="M152.386-164.001q-27.209 0-47.797-20.588-20.588-20.588-20.588-47.797v-492.92q0-27.209 21.742-48.951t48.951-21.742h239.459l78.385 78.385h332.768q24.901 0 44.527 17.511 19.627 17.511 22.704 40.873h-424.46l-78.385-78.385H154.694q-5.385 0-8.847 3.462-3.462 3.462-3.462 8.847v483.612q0 4.231 2.116 6.924 2.115 2.692 5.577 4.616l92.769-355.998h689.46L838.615-225.77q-9.615 35.307-29.269 48.538-19.654 13.231-58.961 13.231H152.386Zm57.306-58.384h567.232l77-305.384H286.692l-77 305.384Zm0 0 77-305.384-77 305.384ZM142.385-659.23V-737.615v78.385Z" fill="#6E6E6E" /></svg>