<svg xmlns="http://www.w3.org/2000/svg" height="48" viewBox="0 -960 960 960" width="48" fill="#6E6E6E"><path d="M194.694-124.001q-28.254 0-49.473-21.22-21.22-21.219-21.22-49.473v-570.612q0-28.254 21.22-49.473 21.219-21.22 49.473-21.22h285.075v58.384H194.694q-4.616 0-8.463 3.846-3.846 3.847-3.846 8.463v570.612q0 4.616 3.846 8.463 3.847 3.846 8.463 3.846h285.075v58.384H194.694Zm469.614-183.693-42.999-42.23 101.384-101.384H360.846v-58.384h360.616L620.078-611.076l42.615-41.615 173.306 173.499-171.691 171.498Z" fill="#6E6E6E" /></svg>