<svg xmlns="http://www.w3.org/2000/svg" height="48" viewBox="0 -960 960 960" width="48" fill="#6E6E6E"><path d="M451.308-439.385v-401.537h58.384v401.537h-58.384Zm28.521 315.999q-73.983 0-138.851-28.166-64.869-28.166-112.949-76.054-48.08-47.888-76.054-112.949-27.974-65.061-27.974-138.466 0-79.517 33.462-149.748 33.461-70.23 95-121.384l39.614 39.615q-51.846 42.846-80.769 103.116-28.923 60.27-28.923 128.015 0 123.087 87.135 210.362 87.135 87.275 210.659 87.275 123.87 0 210.653-87.275 86.783-87.275 86.783-210.362 0-68.824-28.731-129.362-28.73-60.538-79.346-101.769l40.23-39.615q60.308 50.923 93.269 121.151 32.962 70.227 32.962 149.867 0 73.519-27.77 138.557-27.769 65.039-76.268 113.154-48.5 48.115-113.539 76.076-65.039 27.962-138.593 27.962Z" fill="#6E6E6E" /></svg>