<svg xmlns="http://www.w3.org/2000/svg" height="48" viewBox="0 -960 960 960" width="48" fill="#6E6E6E"><path d="M313.163 3.384q-12.47 0-21.586-9.49-9.115-9.49-9.115-21.962 0-12.47 9.49-21.586 9.491-9.115 21.962-9.115t21.586 9.49q9.115 9.49 9.115 21.962 0 12.47-9.49 21.586-9.491 9.115-21.962 9.115Zm166.536 0q-12.086 0-21.123-9.616t-9.037-21.653q0-12.038 9.366-21.461 9.366-9.423 21.654-9.423 12.287 0 21.71 9.49t9.423 21.962q0 12.47-9.528 21.586-9.529 9.115-22.465 9.115Zm167.003 0q-12.471 0-21.587-9.49Q616-15.596 616-28.068q0-12.47 9.491-21.586 9.49-9.115 21.961-9.115 12.471 0 21.586 9.49 9.116 9.49 9.116 21.962 0 12.47-9.491 21.586-9.491 9.115-21.961 9.115ZM480.118-441.847q-42.124 0-69.62-29.285-27.497-29.285-27.497-71.56v-248.923q0-40.096 27.82-68.24t69.003-28.144q41.182 0 69.178 28.144 27.997 28.144 27.997 68.24v248.923q0 42.275-27.379 71.56-27.379 29.285-69.502 29.285ZM480-664.923Zm-29.692 536.922v-138.615q-107.163-10.316-179.235-89.081-72.072-78.765-72.072-186.995h58.384q0 92.077 65.104 155.115 65.104 63.038 157.473 63.038 92.37 0 157.512-63.038 65.141-63.038 65.141-155.115h58.384q0 108.23-72.539 186.922-72.538 78.692-179.768 89.154v138.615h-58.384Zm29.587-372.23q16.72 0 27.72-12.348t11-30.269v-248.767q0-16.15-11.071-27.075-11.072-10.925-27.439-10.925t-27.543 10.925q-11.177 10.925-11.177 27.075v248.923q0 17.765 10.894 30.113 10.895 12.348 27.616 12.348Z" fill="#6E6E6E" /></svg>