<svg xmlns="http://www.w3.org/2000/svg" height="48" viewBox="0 -960 960 960" width="48" fill="#6E6E6E"><path d="M278-245.001q-97.916 0-166.457-68.567-68.542-68.566-68.542-166.518t68.542-166.432Q180.084-714.999 278-714.999h404q97.916 0 166.457 68.567 68.542 68.566 68.542 166.518t-68.542 166.432Q779.916-245.001 682-245.001H278Zm0-58.384h403.714q73.722 0 125.311-51.524 51.59-51.524 51.59-125.154 0-73.629-51.59-125.091-51.589-51.461-125.311-51.461H278q-72.429 0-124.522 51.56-52.093 51.561-52.093 125.242 0 73.68 52.093 125.054Q205.571-303.385 278-303.385ZM682.584-371q45.601 0 77.508-31.684Q792-434.367 792-480.014q0-45.646-31.921-77.316T682.557-589q-45.602 0-77.271 31.684-31.67 31.683-31.67 77.33 0 45.646 31.683 77.316T682.584-371ZM480-480Z" fill="#6E6E6E" /></svg>