<?xml version="1.0" encoding="utf-8"?>
<svg height="48" viewBox="0 -960 960 960" width="48" xmlns="http://www.w3.org/2000/svg">
  <ellipse style="stroke: rgb(0, 0, 0); fill: rgb(158, 200, 255);" cx="487.561" cy="-472.483" rx="474.422" ry="474.417" transform="matrix(0.999996, -0.002868, 0, 1.000004, -7.725073, -6.304523)"/>
  <path d="M 272.846 -220.797 C 219.333 -220.797 173.33 -239.531 134.837 -276.999 C 96.345 -314.466 77.099 -359.927 77.099 -413.381 C 77.099 -463.538 92.845 -507.084 124.337 -544.02 C 155.829 -580.957 195.212 -602.436 242.485 -608.46 C 254.099 -667.252 283.158 -716.009 329.661 -754.729 C 376.164 -793.45 429.052 -812.81 488.326 -812.81 C 554.154 -812.81 611.403 -789.306 660.075 -742.297 C 708.747 -695.287 734.649 -636.917 737.782 -567.186 L 737.782 -531.621 L 749.347 -531.621 C 792.285 -529.838 827.861 -514.225 856.076 -484.78 C 884.291 -455.337 898.399 -419.363 898.399 -376.86 C 898.399 -333.827 883.137 -297.059 852.613 -266.554 C 822.089 -236.049 785.33 -220.797 742.336 -220.797 L 272.846 -220.797 Z M 272.376 -275.661 L 742.677 -275.661 C 770.16 -275.661 793.84 -285.666 813.718 -305.676 C 833.597 -325.686 843.536 -349.413 843.536 -376.86 C 843.536 -404.121 833.539 -427.775 813.544 -447.823 C 793.549 -467.871 769.84 -477.895 742.415 -477.895 L 682.668 -477.895 L 682.668 -555.514 C 682.668 -610.522 664.036 -658.013 626.772 -697.987 C 589.508 -737.96 543.36 -757.947 488.327 -757.947 C 444.763 -757.947 404.85 -744.417 368.587 -717.358 C 332.323 -690.299 309.204 -653.952 299.23 -608.316 C 346.551 -600.894 386.32 -580.594 418.535 -547.416 C 450.75 -514.237 466.857 -472.396 466.857 -421.893 L 411.995 -421.893 C 411.995 -460.638 398.14 -492.66 370.43 -517.961 C 342.721 -543.26 309.494 -555.91 270.749 -555.91 C 230.993 -555.91 197.922 -542.46 171.538 -515.561 C 145.154 -488.662 131.962 -455.343 131.962 -415.605 C 131.962 -376.108 145.503 -342.909 172.586 -316.01 C 199.669 -289.111 232.932 -275.661 272.376 -275.661 Z" style="fill: rgb(255, 255, 255);"/>
</svg>