<svg xmlns="http://www.w3.org/2000/svg" height="48" viewBox="0 -960 960 960" width="48" fill="#cccccc"><path d="M142.385-222.385v-515.23 515.23Zm12.309 58.384q-28.254 0-49.473-21.22-21.22-21.219-21.22-49.473v-490.612q0-28.254 21.22-49.473 21.219-21.22 49.473-21.22h239.459l78.385 78.385h332.768q28.254 0 49.473 21.22 21.22 21.219 21.22 49.473v152.612q-13.539-6.692-28.577-9.422-15.038-2.731-29.807-2.116v-141.074q0-4.616-3.846-8.463-3.847-3.846-8.463-3.846H449.077l-78.385-78.385H154.694q-5.385 0-8.847 3.462-3.462 3.462-3.462 8.847v490.612q0 4.616 3.846 8.463 3.847 3.846 8.463 3.846h342.459l-2.615 2.615v55.769H154.694Zm412.922 79v-114.692l219.153-218.153q8.462-8.52 18.376-12.029 9.914-3.509 19.829-3.509 10.641 0 20.606 3.538 9.965 3.539 17.88 11.615l37 38.385q8.077 8.461 11.808 17.903 3.731 9.443 3.731 19.885 0 10.442-4.202 20.52-4.201 10.078-11.862 18.383L682.307-85.002H567.616Zm294.691-257.307-37-37.385 37 37.385Zm-240 202.615h38l129.847-130.462-18.385-19-18.615-18.769-130.847 130.231v38Zm149.462-149.462-18.615-18.769 37 37.769-18.385-19Z" fill="#cccccc" /></svg>