<svg xmlns="http://www.w3.org/2000/svg" height="48" viewBox="0 -960 960 960" width="48" fill="#cccccc"><path d="M276.309-124.001q-29.596 0-50.144-20.548-20.548-20.549-20.548-50.145v-549.228h-40.616v-58.384h185.076v-32.077h260.846v32.077h185.076v58.384h-40.616v549.228q0 28.254-21.219 49.473-21.219 21.22-49.473 21.22H276.309ZM697-743.922H264v549.228q0 5.385 3.654 8.847 3.655 3.462 8.655 3.462h408.382q4.616 0 8.462-3.846 3.847-3.847 3.847-8.463v-549.228ZM371.232-267.846h58.383v-392.615h-58.383v392.615Zm161.153 0h58.383v-392.615h-58.383v392.615ZM264-743.922V-182.385-743.922Z" fill="#cccccc" /></svg>