<svg xmlns="http://www.w3.org/2000/svg" height="48" viewBox="0 -960 960 960" width="48" fill="#cccccc"><path d="M479.807-282.77q15.077 0 23.75-8.48t8.673-23.557q0-15.078-8.48-23.751-8.48-8.673-23.557-8.673-15.077 0-23.75 8.48t-8.673 23.558q0 15.077 8.48 23.75t23.557 8.673Zm-26.268-150.076h58.383v-252.538h-58.383v252.538Zm26.336 348.845q-82.137 0-153.919-31.44-71.782-31.44-125.415-85.05-53.634-53.611-85.087-125.568-31.453-71.957-31.453-154.374 0-81.926 31.499-154.013 31.499-72.086 85.396-125.992 53.898-53.905 125.493-84.733 71.595-30.828 153.601-30.828 81.984 0 154.376 30.815 72.392 30.814 126.079 84.71 53.688 53.896 84.621 126.275 30.933 72.38 30.933 154.408 0 82.413-30.815 153.693-30.814 71.281-84.697 124.993-53.883 53.711-126.244 85.407-72.361 31.697-154.368 31.697Zm.625-58.384q139.705 0 238.41-99.013 98.705-99.013 98.705-239.102 0-139.705-98.518-238.41Q620.58-817.615 480-817.615q-139.589 0-238.602 98.518Q142.385-620.58 142.385-480q0 139.589 99.013 238.602T480.5-142.385ZM480-480Z" fill="#cccccc" /></svg>