<svg xmlns="http://www.w3.org/2000/svg" height="48" viewBox="0 -960 960 960" width="48" fill="#cccccc"><path d="M550.693-284.693h116.922q23.263 0 37.401-14.138 14.138-14.137 14.138-37.4v-183.846h36.153v-45.384H649.846v-31.461h-80.384v31.461H463.001v45.384h36.153v183.846q0 23.263 14.138 37.4 14.138 14.138 37.401 14.138Zm-6.155-235.384H673.77v183.846q0 2.692-1.731 4.423-1.731 1.731-4.424 1.731H550.693q-2.693 0-4.424-1.731-1.731-1.731-1.731-4.423v-183.846ZM154.694-164.001q-28.254 0-49.473-21.165-21.22-21.165-21.22-49.528v-490.612q0-28.363 21.22-49.528 21.219-21.165 49.473-21.165h239.459l78.385 78.385h332.768q28.363 0 49.528 21.165t21.165 49.528v412.227q0 28.363-21.165 49.528t-49.528 21.165H154.694Zm0-58.384h650.612q5.385 0 8.847-3.462 3.462-3.462 3.462-8.847v-412.227q0-5.385-3.462-8.847-3.462-3.462-8.847-3.462H449.077l-78.385-78.385H154.694q-5.385 0-8.847 3.462-3.462 3.462-3.462 8.847v490.612q0 5.385 3.462 8.847 3.462 3.462 8.847 3.462Zm-12.309 0v-515.23 515.23Z" fill="#cccccc" /></svg>