<svg xmlns="http://www.w3.org/2000/svg" height="48" viewBox="0 -960 960 960" width="48" fill="#cccccc"><path d="M239.693-407.693h115.691l206.82-208.385q7.052-8.461 11.577-18.446 4.526-9.986 4.526-20.521 0-9.787-3.731-19.717-3.73-9.93-11.807-19.007l-36.877-37.502q-9.2-6.959-19.055-10.998-9.855-4.038-20.221-4.038-10.722 0-19.899 3.731-9.178 3.73-17.666 10.807L239.693-523.384v115.691Zm283.923-247.538-37-37.385 37 37.385ZM294.384-462.384v-38l121.244-120.463 17.45 18.769 18.385 19-119.079 120.694h-38Zm138.694-139.694 18.385 19-36-37.769 17.615 18.769Zm25.692 194.385h261.537v-58.383H517.154l-58.384 58.383ZM84.001-97.464v-713.842q0-28.254 21.22-49.473 21.219-21.22 49.473-21.22h650.612q28.254 0 49.473 21.22 21.22 21.219 21.22 49.473v488.612q0 28.254-21.22 49.473-21.219 21.22-49.473 21.22H238.539L84.002-97.464Zm129.692-212.921h591.613q4.616 0 8.463-3.846 3.846-3.847 3.846-8.463v-488.612q0-4.616-3.846-8.463-3.847-3.846-8.463-3.846H154.694q-4.616 0-8.463 3.846-3.846 3.847-3.846 8.463v576.69l71.308-75.769Zm-71.308 0v-513.23 513.23Z" fill="#cccccc" /></svg>