<svg xmlns="http://www.w3.org/2000/svg" height="48" viewBox="0 -960 960 960" width="48" fill="#cccccc"><path d="M481.662-163.001q-131.748 0-223.935-92.67-92.187-92.669-92.187-223.268t92.187-224.329q92.187-93.731 224.191-93.731 80.543 0 144.774 35.654t110.384 95.578v-131.232h58.384v252.537H542.924v-58.384h167.999q-38.077-60.769-95.692-96.769-57.616-36-133.692-36-108.507 0-183.061 74.299-74.554 74.298-74.554 182.153 0 108.855 74.587 183.317 74.588 74.461 183.142 74.461 81.347 0 148.924-46.538 67.577-46.539 95.192-125h59.999q-28.846 102.922-113.464 166.422-84.617 63.5-190.642 63.5Z" fill="#cccccc" /></svg>