<svg xmlns="http://www.w3.org/2000/svg" height="48" viewBox="0 -960 960 960" width="48" fill="#cccccc"><path d="M451.308-490.461v-373.46h58.384v373.46h-58.384Zm28.868 266.691q-127.9 0-217.576-89.84-89.676-89.841-89.676-218.208 0-75.463 35.346-140.63 35.346-65.166 98.269-112.089l40.615 41.23q-53.231 36.615-84.538 92.115-31.308 55.5-31.308 119.679 0 103.283 72.743 176.321Q376.795-282.154 480-282.154q102.038 0 175.365-73.038 73.327-73.038 73.327-176.398 0-64.12-29.808-122.034-29.807-57.914-85.423-91.683l40.23-40.23q64.154 43.461 98.769 111.079 34.616 67.617 34.616 142.735 0 127.954-89.5 217.953-89.5 90-217.4 90ZM310.692 11q-16.117 0-27.558-11.635-11.441-11.634-11.441-27.75 0-16.117 11.716-27.558 11.716-11.441 27.476-11.441 16.309 0 27.558 11.716 11.249 11.716 11.249 27.476 0 16.31-11.442 27.75Q326.808 11 310.692 11Zm169.115 0q-16.309 0-27.558-11.635Q441-12.269 441-28.385q0-16.117 11.442-27.558 11.442-11.441 27.559-11.441 16.116 0 27.557 11.716Q519-43.952 519-28.192q0 16.31-11.716 27.75Q495.568 11 479.807 11Zm169.308 0q-16.309 0-27.558-11.635-11.249-11.634-11.249-27.75 0-16.117 11.442-27.558 11.442-11.441 27.558-11.441 16.117 0 27.558 11.716 11.441 11.716 11.441 27.476 0 16.31-11.716 27.75Q664.875 11 649.115 11Z" fill="#cccccc" /></svg>