<svg xmlns="http://www.w3.org/2000/svg" height="48" viewBox="0 -960 960 960" width="48" fill="#cccccc"><path d="M278-245.001q-97.916 0-166.457-68.567-68.542-68.566-68.542-166.518t68.542-166.432Q180.084-714.999 278-714.999h404q97.916 0 166.457 68.567 68.542 68.566 68.542 166.518t-68.542 166.432Q779.916-245.001 682-245.001H278Zm.286-58.384H682q72.429 0 124.522-51.56 52.093-51.561 52.093-125.242 0-73.68-52.093-125.054Q754.429-656.615 682-656.615H278.286q-73.722 0-125.311 51.524-51.59 51.524-51.59 125.154 0 73.629 51.59 125.091 51.589 51.461 125.311 51.461ZM277.443-371q45.602 0 77.272-31.684 31.669-31.683 31.669-77.33 0-45.646-31.683-77.316T277.416-589q-45.601 0-77.508 31.684Q168-525.633 168-479.986q0 45.646 31.921 77.316T277.443-371ZM480-480Z" fill="#cccccc" /></svg>