<svg xmlns="http://www.w3.org/2000/svg" height="48" viewBox="0 -960 960 960" width="48" fill="#cccccc"><path d="M451.308-70v-118h58.384v118h-58.384ZM80.001-441.309v-58.384H197v58.384H80Zm682.999 0v-58.384h116.999v58.384H763Zm-26.231 275.077-81.923-81.923 41.615-41.615 81.923 81.923-41.615 41.615Zm-513.538 0-41.615-41.615 81.923-81.923 41.615 41.615-81.923 81.923Zm256.903-122.77q-74.984 0-128.059-52.979-53.074-52.98-53.074-128.02 0-48.307 21.192-87.577 21.193-39.269 59.808-64.961v-198.613h199.998v198.613q37.615 25.692 59.308 64.961 21.692 39.27 21.692 87.577 0 75.04-52.94 128.02-52.94 52.979-127.925 52.979Zm-41.749-354.383q10.115-3.313 20.615-4.777 10.5-1.464 21-1.464t21 1.464q10.5 1.464 20.615 4.777v-119.384h-83.23v119.384Zm41.439 295.999q50.791 0 87.291-35.823 36.5-35.824 36.5-86.616 0-50.791-36.441-87.291t-87.233-36.5q-50.792 0-86.674 36.441-35.882 36.441-35.882 87.233t35.823 86.674q35.824 35.882 86.616 35.882ZM480-470Z" fill="#cccccc" /></svg>